<?xml version="1.0" encoding="utf-8"?>
<!-- Generator: Adobe Illustrator 22.1.0, SVG Export Plug-In . SVG Version: 6.00 Build 0)  -->
<svg version="1.1" id="Calque_1" xmlns="http://www.w3.org/2000/svg" xmlns:xlink="http://www.w3.org/1999/xlink" x="0px" y="0px"
	 viewBox="0 0 595.3 841.9" style="enable-background:new 0 0 595.3 841.9;" xml:space="preserve">
<style type="text/css">
	.st0{fill:#E52421;}
	.st1{fill:#010202;stroke:#FFFFFF;stroke-width:0.25;stroke-miterlimit:10;}
	.st2{fill-rule:evenodd;clip-rule:evenodd;}
	.st3{fill:#FFFFFF;}
	.st4{fill:#FFFFFF;stroke:#000000;stroke-width:0.25;stroke-miterlimit:10;}
</style>
<rect x="154" y="350.3" class="st0" width="22" height="8.2"/>
<rect x="154" y="366.1" class="st0" width="22" height="8.1"/>
<rect x="154" y="382.3" class="st0" width="22" height="7.8"/>
<polygon class="st0" points="154,398 154,406.6 176,405.3 176,398 "/>
<path d="M405.1,314.3c0,0-2.1-6,2.5-6.2c3.3-0.1,8.1-1,9.3,1.8c1.3,3-4,6.6-6,8C407.3,320.6,405.1,314.3,405.1,314.3z"/>
<path class="st1" d="M420.2,303.6c5.8-3.5,10.1-2.6,11.5,1c1.3,3.4-0.6,6.8-6.8,8c-8.8,1.7-9.4,1.1-10.3-1.2
	C413.7,309.1,412.1,308.5,420.2,303.6z"/>
<g>
	<path d="M342.4,408.9H403V419h-73.8c0,0,40-69.7,48.7-79.7c4.3-4.9,8.2-9.1,11.2-11.5c6-4.7,14.9-9.3,14.9-9.3l-2-4.7
		c0,0-3.4,0.9-7.3,1.9c-1.4,0.3-4.8,1.2-5.3,1.2c-0.8,0.1-1.7,0.3-2.6,0.5c-0.8,0.2-15.3,4.1-32.7,2.1l-17.8-1.3l0.4-5.1
		c0,0,18.6,2.3,29.2,1.9c8.1-0.3,13-1,19.6-2.4c11-2.4,19.9-5.2,19.9-5.2l4.7,12.7c0,0-4.4,1.8-11.2,6.3c-4.6,3-8.8,6.5-12.1,9.7
		c-2.8,2.7-7.4,8.5-10.3,12.9c-1.9,2.8-7,10.9-12.3,19.8C352.2,389.1,342.4,408.9,342.4,408.9z"/>
</g>
<path class="st2" d="M336.4,317.9l4,0.2c0,0-0.1,1.4-0.9,2c-1,0.7-0.9,0.9-0.9,1.3c0,0.4,0.3,1,0.3,1.3c0.1,0.3-0.1,1.1-0.9,1.1
	c-0.8,0-0.9-0.7-0.8-1.2c0.1-0.3,0.5-0.9,0.5-1.2c0-0.3,0-0.7-0.8-1.4C336.2,319.3,336.4,317.9,336.4,317.9z"/>
<path class="st2" d="M346.7,318.8l4,0.3c0,0-0.1,1.4-0.9,2c-1,0.7-0.9,0.9-0.9,1.3c0,0.4,0.2,1,0.3,1.3c0.1,0.3-0.1,1.1-0.9,1
	c-0.8-0.1-0.9-0.7-0.8-1.2c0.1-0.3,0.5-0.8,0.5-1.2c0-0.3,0-0.7-0.8-1.4C346.5,320.2,346.7,318.8,346.7,318.8z"/>
<path class="st2" d="M352,319.2l4,0.2c0,0-0.1,1.4-0.8,2c-1,0.7-0.9,1-0.9,1.3c0,0.4,0.3,1,0.3,1.3c0.1,0.3-0.1,1.1-0.9,1.1
	c-0.8,0-0.9-0.7-0.8-1.2c0.1-0.3,0.5-0.9,0.5-1.2c0-0.3-0.1-0.7-0.8-1.4C351.8,320.6,352,319.2,352,319.2z"/>
<path class="st2" d="M357.2,319.3l4,0.3c0,0-0.1,1.4-0.9,2c-1,0.7-0.9,0.9-0.9,1.3c0,0.4,0.3,1,0.3,1.3c0.1,0.3-0.1,1.1-0.9,1.1
	c-0.8,0-0.9-0.7-0.8-1.2c0.1-0.3,0.5-0.9,0.5-1.2c0-0.3,0-0.7-0.8-1.4C357,320.8,357.2,319.3,357.2,319.3z"/>
<path class="st2" d="M362.3,319.8l4,0c0,0,0,1.4-0.7,2c-0.9,0.7-0.8,1-0.8,1.4c0,0.4,0.3,1,0.4,1.2c0.1,0.3,0,1.1-0.8,1.1
	c-0.8,0-1-0.7-0.9-1.1c0.1-0.3,0.4-0.9,0.4-1.2c0-0.3-0.1-0.7-0.9-1.3C362.2,321.2,362.3,319.8,362.3,319.8z"/>
<path class="st2" d="M367.4,319.6l4-0.3c0,0,0.1,1.4-0.6,2.1c-0.9,0.8-0.8,1-0.7,1.4c0,0.4,0.4,0.9,0.5,1.2c0.1,0.3,0.1,1.1-0.8,1.2
	c-0.8,0.1-1-0.6-0.9-1.1c0.1-0.4,0.4-0.9,0.3-1.3c0-0.3-0.1-0.7-1-1.3C367.4,321.1,367.4,319.6,367.4,319.6z"/>
<path class="st2" d="M372.6,319.2l4-0.5c0,0,0.2,1.4-0.5,2.1c-0.8,0.9-0.7,1.1-0.7,1.4s0.4,0.9,0.6,1.2c0.1,0.3,0.1,1.1-0.7,1.2
	c-0.8,0.1-1-0.5-1-1c0-0.4,0.3-0.9,0.3-1.3c0-0.3-0.2-0.7-1.1-1.2C372.7,320.7,372.6,319.2,372.6,319.2z"/>
<path class="st2" d="M377.9,318.5l4-0.6c0,0,0.2,1.4-0.4,2.1c-0.8,0.9-0.7,1.1-0.6,1.5c0.1,0.4,0.5,0.9,0.6,1.2
	c0.1,0.3,0.2,1.1-0.7,1.2c-0.8,0.1-1.1-0.5-1-1c0-0.4,0.3-0.9,0.2-1.3c0-0.3-0.2-0.7-1.1-1.2C378,320,377.9,318.5,377.9,318.5z"/>
<path class="st2" d="M382.9,317.9l3.9-0.8c0,0,0.3,1.4-0.3,2.1c-0.8,0.9-0.6,1.1-0.6,1.5c0.1,0.4,0.5,0.9,0.6,1.1
	c0.2,0.3,0.2,1.1-0.6,1.3c-0.8,0.2-1.1-0.5-1-0.9c0-0.4,0.2-1,0.2-1.3c-0.1-0.3-0.2-0.6-1.2-1.1
	C383.1,319.3,382.9,317.9,382.9,317.9z"/>
<path class="st2" d="M387.8,316.9l3.9-0.8c0,0,0.3,1.4-0.3,2.1c-0.8,0.9-0.6,1.1-0.6,1.5c0.1,0.4,0.5,0.9,0.6,1.1
	c0.2,0.3,0.2,1.1-0.6,1.3c-0.8,0.2-1.1-0.5-1-0.9c0-0.4,0.2-1,0.2-1.3c-0.1-0.3-0.2-0.6-1.1-1.1C388,318.4,387.8,316.9,387.8,316.9z
	"/>
<path class="st2" d="M392.7,315.8l3.7-0.7c0,0,0.4,0.8-0.1,1.6c-0.7,1-0.4,1.4-0.3,1.7s0.6,0.8,0.7,1.1c0.2,0.3,0.3,1.1-0.5,1.3
	c-0.8,0.2-1.1-0.4-1.1-0.9c0-0.4,0.2-1,0.1-1.3c-0.1-0.3-0.3-0.6-1.2-1.1C393,317.2,392.7,315.8,392.7,315.8z"/>
<path class="st2" d="M397,314.3l3.4-1c0,0,0.6,1.2,0.1,2c-0.7,1-0.5,1.2-0.4,1.5c0.1,0.3,0.6,0.8,0.8,1.1c0.2,0.3,0.4,1-0.4,1.3
	c-0.7,0.2-1.2-0.3-1.2-0.8c0-0.4,0-1-0.1-1.3c-0.1-0.2-0.2-0.6-1.2-1C397.1,315.9,397,314.3,397,314.3z"/>
<path class="st2" d="M405.3,320.1l-3.7,1.6c0,0-0.7-1.5-0.3-2.4c0.4-1,0.4-1,0.3-1.4c-0.1-0.4-0.6-0.7-0.8-1c-0.2-0.3-0.4-1,0.3-1.4
	c0.7-0.3,1.1,0.2,1.2,0.7c0.1,0.4,0,1,0.1,1.3c0.1,0.2,0.3,0.6,1.4,0.9C404.8,318.7,405.3,320.1,405.3,320.1z"/>
<path class="st2" d="M401.4,321.5l-3.6,1.7c0,0-0.6-1.3-0.2-2.2c0.5-1.1,0.3-1.2,0.2-1.6s-0.7-0.7-0.9-1c-0.2-0.3-0.5-1,0.3-1.4
	c0.7-0.3,1.2,0.2,1.2,0.7c0.1,0.3,0.1,0.9,0.1,1.2c0.1,0.3,0.2,0.7,1.2,1C400.7,320.2,401.4,321.5,401.4,321.5z"/>
<path class="st2" d="M397.2,322.8l-3.3,2.2c0,0-0.8-1.2-0.5-2.1c0.4-1.1,0.2-1.3-0.1-1.6c-0.2-0.3-0.8-0.6-1-0.8
	c-0.3-0.2-0.6-0.9,0.1-1.4c0.7-0.4,1.2,0,1.3,0.5c0.1,0.3,0.1,1,0.3,1.3c0.1,0.2,0.4,0.5,1.5,0.6
	C396.4,321.6,397.2,322.8,397.2,322.8z"/>
<path class="st2" d="M392.9,325l-3.2,2.5c0,0-0.9-1.1-0.7-2.1c0.3-1.2,0-1.3-0.2-1.6c-0.2-0.3-0.8-0.6-1.1-0.7
	c-0.3-0.2-0.7-0.9,0-1.4c0.6-0.5,1.2-0.1,1.4,0.4c0.1,0.3,0.2,1,0.4,1.2c0.2,0.2,0.5,0.5,1.5,0.5C392.1,323.8,392.9,325,392.9,325z"
	/>
<path class="st2" d="M389,327.9l-2.9,2.7c0,0-1-1-0.9-2c0.2-1.2-0.1-1.3-0.3-1.6c-0.3-0.3-0.9-0.5-1.1-0.6c-0.3-0.2-0.8-0.8-0.2-1.4
	c0.6-0.5,1.2-0.2,1.4,0.2c0.2,0.3,0.3,0.9,0.5,1.2c0.2,0.2,0.5,0.4,1.6,0.4C388,326.8,389,327.9,389,327.9z"/>
<path class="st2" d="M385.6,331.5l-2.8,2.9c0,0-1-1-0.9-2c0.1-1.2-0.1-1.3-0.4-1.5c-0.3-0.3-0.9-0.5-1.2-0.6
	c-0.3-0.2-0.8-0.8-0.2-1.4c0.6-0.6,1.2-0.2,1.4,0.2c0.2,0.3,0.3,0.9,0.6,1.2c0.2,0.2,0.5,0.4,1.6,0.3
	C384.6,330.4,385.6,331.5,385.6,331.5z"/>
<path class="st2" d="M381.9,334.8l-2.6,3.1c0,0-1.1-0.9-1.1-1.9c0-1.2-0.2-1.3-0.5-1.5c-0.3-0.2-0.9-0.4-1.2-0.5
	c-0.3-0.1-0.9-0.7-0.3-1.4c0.5-0.6,1.1-0.3,1.4,0.1c0.2,0.3,0.4,0.9,0.7,1.1c0.2,0.2,0.6,0.4,1.6,0.2
	C380.8,333.9,381.9,334.8,381.9,334.8z"/>
<path class="st2" d="M378.8,338.6l-2.4,3.2c0,0-1.2-0.8-1.2-1.8c0-1.2-0.3-1.3-0.6-1.5c-0.3-0.2-1-0.3-1.2-0.4
	c-0.3-0.1-0.9-0.7-0.4-1.3c0.5-0.6,1.1-0.4,1.4,0c0.2,0.3,0.5,0.9,0.7,1.1c0.2,0.2,0.6,0.3,1.6,0.1
	C377.7,337.7,378.8,338.6,378.8,338.6z"/>
<path class="st2" d="M376,342.9l-2.2,3.3c0,0-1.2-0.8-1.3-1.8c-0.1-1.2-0.4-1.2-0.7-1.4s-1-0.3-1.3-0.4c-0.3-0.1-0.9-0.6-0.5-1.3
	c0.4-0.7,1.1-0.4,1.4-0.1c0.2,0.3,0.5,0.8,0.8,1c0.2,0.1,0.6,0.3,1.6,0C374.8,342,376,342.9,376,342.9z"/>
<path class="st2" d="M372.9,346.7l-2.2,3.3c0,0-1.2-0.8-1.3-1.8c-0.1-1.2-0.4-1.2-0.7-1.4c-0.3-0.2-1-0.3-1.3-0.4
	c-0.3-0.1-0.9-0.6-0.5-1.3c0.4-0.7,1.1-0.4,1.4-0.1c0.2,0.3,0.5,0.9,0.8,1.1c0.2,0.1,0.6,0.3,1.6,0
	C371.8,345.8,372.9,346.7,372.9,346.7z"/>
<path class="st2" d="M369.9,351.3l-2.3,3.3c0,0-1.2-0.8-1.3-1.8c-0.1-1.2-0.3-1.2-0.7-1.4s-1-0.3-1.3-0.4c-0.3-0.1-0.9-0.6-0.5-1.3
	c0.4-0.7,1.1-0.4,1.4-0.1c0.2,0.3,0.5,0.9,0.8,1.1c0.2,0.1,0.6,0.3,1.6,0C368.7,350.4,369.9,351.3,369.9,351.3z"/>
<path class="st2" d="M367.3,355.4l-2.2,3.4c0,0-1.2-0.8-1.3-1.7c-0.1-1.2-0.4-1.2-0.7-1.4c-0.3-0.2-1-0.3-1.3-0.3
	c-0.3-0.1-0.9-0.6-0.5-1.3c0.4-0.7,1.1-0.4,1.4-0.1c0.2,0.3,0.5,0.8,0.8,1c0.2,0.1,0.6,0.3,1.6,0
	C366.2,354.5,367.3,355.4,367.3,355.4z"/>
<path class="st2" d="M364.5,359.6l-2,3.5c0,0-1.3-0.7-1.4-1.7c-0.2-1.2-0.4-1.2-0.8-1.4c-0.3-0.2-1-0.2-1.3-0.3
	c-0.3-0.1-1-0.6-0.6-1.3c0.4-0.7,1.1-0.5,1.4-0.2c0.3,0.2,0.6,0.8,0.9,1c0.2,0.1,0.6,0.3,1.6-0.1
	C363.2,358.8,364.5,359.6,364.5,359.6z"/>
<path class="st2" d="M361.9,364.1l-2.1,3.4c0,0-1.2-0.7-1.4-1.7c-0.1-1.2-0.4-1.2-0.7-1.4c-0.3-0.2-1-0.2-1.3-0.3
	c-0.3-0.1-1-0.6-0.5-1.3c0.4-0.7,1.1-0.5,1.4-0.1c0.2,0.3,0.5,0.8,0.8,1c0.2,0.1,0.6,0.3,1.6-0.1
	C360.7,363.3,361.9,364.1,361.9,364.1z"/>
<path class="st2" d="M359.2,368.6l-2,3.5c0,0-1.2-0.7-1.4-1.7c-0.2-1.2-0.4-1.2-0.7-1.4c-0.3-0.2-1-0.2-1.3-0.3
	c-0.3-0.1-1-0.6-0.5-1.3c0.4-0.7,1.1-0.5,1.4-0.2c0.3,0.3,0.5,0.8,0.9,1c0.2,0.1,0.6,0.3,1.6-0.1C358,367.8,359.2,368.6,359.2,368.6
	z"/>
<path class="st2" d="M356.4,373.2l-1.9,3.5c0,0-1.3-0.7-1.4-1.6c-0.2-1.2-0.5-1.2-0.8-1.4c-0.3-0.2-1-0.2-1.3-0.2
	c-0.3-0.1-1-0.5-0.6-1.3c0.4-0.7,1-0.5,1.4-0.2c0.3,0.2,0.6,0.8,0.9,1c0.2,0.1,0.6,0.2,1.6-0.2C355.1,372.4,356.4,373.2,356.4,373.2
	z"/>
<path class="st2" d="M350.7,382.4l-2,3.5c0,0-1.3-0.7-1.4-1.6c-0.2-1.2-0.5-1.2-0.8-1.4c-0.3-0.2-1-0.2-1.3-0.3
	c-0.3-0.1-1-0.5-0.6-1.3c0.4-0.7,1.1-0.5,1.4-0.2c0.3,0.2,0.6,0.8,0.9,1c0.2,0.1,0.6,0.3,1.6-0.1
	C349.4,381.6,350.7,382.4,350.7,382.4z"/>
<path class="st2" d="M348,387l-1.9,3.5c0,0-1.3-0.7-1.4-1.6c-0.2-1.2-0.5-1.2-0.8-1.4s-1-0.2-1.3-0.3c-0.3-0.1-1-0.5-0.6-1.3
	c0.4-0.7,1.1-0.5,1.4-0.2c0.3,0.2,0.6,0.8,0.9,1c0.2,0.1,0.6,0.3,1.6-0.1C346.8,386.2,348,387,348,387z"/>
<path class="st2" d="M345.2,391.8l-2,3.5c0,0-1.2-0.7-1.4-1.7c-0.2-1.2-0.4-1.2-0.7-1.4c-0.3-0.2-1-0.2-1.3-0.3
	c-0.3-0.1-1-0.6-0.5-1.3c0.4-0.7,1.1-0.5,1.4-0.2c0.3,0.3,0.5,0.8,0.9,1c0.2,0.1,0.6,0.3,1.6-0.1C344,391,345.2,391.8,345.2,391.8z"
	/>
<path class="st2" d="M342.4,396.6l-2.1,3.4c0,0-1.2-0.7-1.3-1.7c-0.1-1.2-0.4-1.2-0.7-1.4c-0.3-0.2-1-0.2-1.3-0.3
	c-0.3-0.1-0.9-0.6-0.5-1.3c0.4-0.7,1.1-0.5,1.4-0.1c0.2,0.3,0.5,0.8,0.8,1c0.2,0.1,0.6,0.3,1.6-0.1
	C341.2,395.8,342.4,396.6,342.4,396.6z"/>
<path class="st2" d="M339.5,401.3l-2,3.5c0,0-1.3-0.7-1.4-1.7c-0.2-1.2-0.5-1.2-0.8-1.4c-0.3-0.2-1-0.2-1.3-0.3
	c-0.3-0.1-1-0.6-0.6-1.3c0.4-0.7,1.1-0.5,1.4-0.2c0.3,0.2,0.6,0.8,0.9,1c0.2,0.1,0.6,0.3,1.6-0.1
	C338.3,400.5,339.5,401.3,339.5,401.3z"/>
<path class="st2" d="M337.1,406.2l-2,3.5c0,0-1.3-0.7-1.4-1.7c-0.2-1.2-0.4-1.2-0.8-1.4c-0.3-0.2-1-0.2-1.3-0.3
	c-0.3-0.1-1-0.6-0.6-1.3c0.4-0.7,1.1-0.5,1.4-0.2c0.3,0.2,0.6,0.8,0.9,1c0.2,0.1,0.6,0.3,1.6-0.1
	C335.8,405.4,337.1,406.2,337.1,406.2z"/>
<path class="st2" d="M334,410.9l-2,3.4c0,0-1.2-0.7-1.4-1.7c-0.2-1.2-0.4-1.2-0.7-1.4c-0.3-0.2-1-0.2-1.3-0.3
	c-0.3-0.1-1-0.6-0.5-1.3c0.4-0.7,1.1-0.5,1.4-0.2c0.3,0.3,0.5,0.8,0.9,1c0.2,0.1,0.6,0.3,1.6-0.1C332.8,410.1,334,410.9,334,410.9z"
	/>
<path class="st2" d="M331.2,415.5l-2,3.5c0,0-1.3-0.7-1.4-1.7c-0.2-1.2-0.5-1.2-0.8-1.4s-1-0.2-1.3-0.3c-0.3-0.1-1-0.6-0.6-1.3
	c0.4-0.7,1.1-0.5,1.4-0.2c0.3,0.2,0.6,0.8,0.9,1c0.2,0.1,0.6,0.3,1.6-0.1C330,414.7,331.2,415.5,331.2,415.5z"/>
<path class="st2" d="M400.7,313l3.3-1.1c0,0,0.6,1.1,0.1,2c-0.6,1-0.4,1.2-0.3,1.6c0.1,0.3,0.6,0.8,0.8,1c0.2,0.3,0.4,1.1-0.4,1.3
	c-0.7,0.3-1.1-0.3-1.2-0.8c0-0.4,0.1-1,0-1.3c-0.1-0.2-0.3-0.6-1.3-0.9C400.8,314.6,400.7,313,400.7,313z"/>
<path class="st2" d="M341.6,318.4l4,0.3c0,0-0.1,1.4-0.9,2c-1,0.7-0.9,0.9-0.9,1.3s0.2,1,0.3,1.3c0.1,0.3-0.1,1.1-0.9,1
	c-0.8-0.1-0.9-0.7-0.8-1.2c0.1-0.3,0.5-0.8,0.5-1.2c0-0.3,0-0.7-0.8-1.4C341.4,319.9,341.6,318.4,341.6,318.4z"/>
<path class="st2" d="M353.7,377.8l-2,3.5c0,0-1.3-0.7-1.4-1.6c-0.2-1.2-0.5-1.2-0.8-1.4c-0.3-0.2-1-0.2-1.3-0.3
	c-0.3-0.1-1-0.5-0.6-1.3c0.4-0.7,1.1-0.5,1.4-0.2c0.3,0.2,0.6,0.8,0.9,1c0.2,0.1,0.6,0.3,1.6-0.1C352.5,377,353.7,377.8,353.7,377.8
	z"/>
<ellipse transform="matrix(0.9347 -0.3555 0.3555 0.9347 -80.8122 172.1528)" class="st3" cx="428" cy="306" rx="2.1" ry="2.4"/>
<ellipse transform="matrix(0.9618 -0.2738 0.2738 0.9618 -68.5769 126.7993)" class="st3" cx="419.9" cy="309.1" rx="2.5" ry="2.7"/>
<path class="st4" d="M415.1,309c5.5-2.1,6.1-1.5,6.5-0.5c0.4,0.9-0.5,1.9-5.2,3.9c-4.8,2-6.1,1.5-6.5,0.5
	C409.6,312,409.7,311.1,415.1,309z"/>
<g>
	<path d="M95.1,324.2h10.5v61.8c0,24.6-10.6,32.1-27.4,32.1c-4.7,0-10.4-0.9-13.5-2.2l1.8-9.7c2.6,1,6.4,1.8,10.7,1.8
		c11.2,0,17.8-4.8,17.8-23V324.2z"/>
	<path d="M183.7,398.4c0,7,0.2,12.9,0.5,18.1h-8.7l-0.6-10.8h-0.3c-3.1,5.3-10.1,12.4-21.9,12.4c-10.4,0-28.8-5.8-28.8-29.1v-38.8
		h8.2v33.9c0,12.6,10.7,22,21.6,22c0.1,0-0.8,0-0.8,0c11.6-0.1,23.2-9.6,23.1-21.2c0-1.2,0-2.3,0-3v-31.7h7.7V398.4z"/>
	<path d="M202.6,370.9c0-7.8-0.2-14.5-0.6-20.7h9.1l0.5,13h0.5c3.3-8.9,11.1-14.5,19.7-14.5c1.4,0,2.4,0.1,3.6,0.3v10.8
		c-1.3-0.3-2.6-0.3-4.4-0.3c-9.1,0-15.5,7-17.2,16c-0.3,1.7-0.5,3.7-0.5,5.6v35.4h-10.7V370.9z"/>
	<path d="M285.2,416.6l-0.6-8.4h-0.4c-3.6,5.2-10.8,9.9-20.3,9.9c-13.4,0-20.3-9.5-20.3-19c0-16.1,14.2-24.9,39.8-24.7v-1.4
		c0-5.4-1.5-15.4-15.1-15.3c-6.2,0-12.6,1.8-17.3,4.9l-2.7-8c5.5-3.5,13.5-5.8,21.9-5.8c20.3,0,23.2,13.9,23.2,27.1v24.8
		c0,5.7,0.3,11.3,1,15.9H285.2z M283.8,382.7c-13-0.3-28,2.1-28,14.9c0,7.9,5.2,11.5,11.3,11.5c8.7,0,14.2-5.5,16.2-11.1
		c0.4-1.3,0.6-2.6,0.6-3.8V382.7z"/>
	<path d="M324.6,322.6c-3.1,11.5-9.1,26.3-12.8,32.6h-7c2.9-8,8.3-22.7,9.8-32.6H324.6z"/>
	<path d="M420.8,416.6v-66.3h10v66.3H420.8z"/>
	<path d="M449.9,371.9c0-8.5-0.2-15.3-0.5-21.6h8.8l0.7,11.3h0.3c4.8-8.1,13.5-12.8,24.2-12.8c14.9,0,26.9,13.3,26.9,33.5
		c0,23.9-14.4,35.9-28.3,35.8c-8.9,0-17.8-3.8-21.7-10.4h-0.3v36.1h-10V371.9z M459.9,388.4c0,1.7,0.3,5,0.7,6.6
		c2.2,8.4,10.1,13.6,18.7,13.6c12.8,0,19.4-11.9,19.4-25.7c0-11.9-5.8-24.6-18.6-24.6c-8.2,0-16.9,5-19.2,14c-0.4,1.6-1,5.4-1,7
		V388.4z"/>
</g>
<path class="st0" d="M136.8,359.1c0,0,1.4-1.8,3.6-0.9c1,0.4,2.2,3.1,0,4.9c-1.6,1.4-5.6,1.2-6.5-3.2c-0.7-3.4,2.5-6.1,4-6.6
	c1.8-0.6,4.4-1.3,7.3,0.9c2.4,1.8,2.9,4.7,3.1,8c0.2,3.3,0.2,3.9,0.2,3.9h-5.2c0,0,0.7-5.2,0.4-6.6c-0.3-1.3-1.4-3.5-3.7-3.5
	C136.9,356,136.8,359.1,136.8,359.1z"/>
<polygon class="st0" points="142.4,372.4 139.3,396.2 143.1,392.2 145.9,401.7 148.8,392.1 152.5,396.2 149.4,372.4 "/>
<path class="st0" d="M149.5,368h-7.3c-0.4,0-0.7-0.3-0.7-0.7l0,0c0-0.4,0.3-0.7,0.7-0.7h7.3c0.4,0,0.7,0.3,0.7,0.7l0,0
	C150.2,367.7,149.9,368,149.5,368z"/>
<path class="st0" d="M151.2,370h-10.7c-0.4,0-0.7-0.3-0.7-0.7l0,0c0-0.4,0.3-0.7,0.7-0.7h10.7c0.4,0,0.7,0.3,0.7,0.7l0,0
	C151.9,369.7,151.6,370,151.2,370z"/>
<path class="st0" d="M149.5,371.9h-7.3c-0.4,0-0.7-0.3-0.7-0.7l0,0c0-0.4,0.3-0.7,0.7-0.7h7.3c0.4,0,0.7,0.3,0.7,0.7l0,0
	C150.2,371.6,149.9,371.9,149.5,371.9z"/>
</svg>
